<svg width="64" height="64" viewBox="0 0 64 64" fill="none" xmlns="http://www.w3.org/2000/svg">
<g id="Logo / icon">
<g id="Logo / Icon">
<path fill-rule="evenodd" clip-rule="evenodd" d="M17.4415 8.28816C17.4415 6.92403 18.5411 5.81818 19.8976 5.81818H45.5301C49.0569 5.81818 51.916 8.69338 51.916 12.2401V51.7599C51.916 55.3066 49.0569 58.1818 45.5301 58.1818H14.0923C12.7359 58.1818 11.6362 57.076 11.6362 55.7118C11.6362 54.3477 12.7359 53.2419 14.0923 53.2419H45.5301C46.344 53.2419 47.0038 52.5783 47.0038 51.7599V12.2401C47.0038 11.4217 46.344 10.7581 45.5301 10.7581H19.8976C18.5411 10.7581 17.4415 9.65229 17.4415 8.28816Z" fill="#FFDB1D"/>
<path fill-rule="evenodd" clip-rule="evenodd" d="M25.3903 20.1441C25.3903 18.7799 26.4899 17.6741 27.8464 17.6741H40.618C41.9744 17.6741 43.0741 18.7799 43.0741 20.1441C43.0741 21.5082 41.9744 22.6141 40.618 22.6141H27.8464C26.4899 22.6141 25.3903 21.5082 25.3903 20.1441Z" fill="#FFDB1D"/>
<path fill-rule="evenodd" clip-rule="evenodd" d="M14.5835 32C14.5835 30.6359 15.6832 29.53 17.0396 29.53L40.618 29.53C41.9744 29.53 43.0741 30.6359 43.0741 32C43.0741 33.3641 41.9744 34.47 40.618 34.47L17.0396 34.47C15.6832 34.47 14.5835 33.3641 14.5835 32Z" fill="#FFDB1D"/>
<path fill-rule="evenodd" clip-rule="evenodd" d="M20.4781 43.8559C20.4781 42.4918 21.5777 41.3859 22.9342 41.3859H40.618C41.9744 41.3859 43.0741 42.4918 43.0741 43.8559C43.0741 45.22 41.9744 46.3259 40.618 46.3259H22.9342C21.5777 46.3259 20.4781 45.22 20.4781 43.8559Z" fill="#FFDB1D"/>
</g>
</g>
</svg>
