<svg width="179" height="36" viewBox="0 0 179 36" fill="none" xmlns="http://www.w3.org/2000/svg">
<path d="M42.4231 26.7989C42.4537 26.4622 42.5709 26.1306 42.7749 25.8041C42.989 25.4675 43.2184 25.2073 43.4631 25.0236C44.3705 25.646 45.3595 26.1561 46.4301 26.554C47.5109 26.9417 48.5611 27.1356 49.5807 27.1356C51.0387 27.1356 52.201 26.8346 53.0677 26.2326C53.9445 25.6205 54.383 24.7788 54.383 23.7075C54.383 22.7383 54.0567 21.9374 53.4042 21.3049C52.7516 20.6621 51.9665 20.1469 51.0489 19.7592L47.3478 18.1982C46.0529 17.6473 45.0435 16.9586 44.3195 16.1322C43.6058 15.3058 43.249 14.2907 43.249 13.0868C43.249 12.0768 43.5141 11.1432 44.0443 10.2862C44.5744 9.42924 45.3289 8.74567 46.3078 8.23555C47.2968 7.71523 48.4693 7.45506 49.8254 7.45506C50.9877 7.45506 52.0838 7.603 53.1136 7.89887C54.1434 8.19474 55.0559 8.53652 55.8512 8.92422C55.8512 9.24049 55.7696 9.57207 55.6065 9.91895C55.4434 10.2658 55.2292 10.5464 54.9641 10.7607C54.1587 10.3424 53.3073 10.0057 52.41 9.75061C51.5128 9.48535 50.6818 9.35272 49.9171 9.35272C48.6222 9.35272 47.5568 9.6792 46.7207 10.3322C45.8948 10.9851 45.4819 11.8421 45.4819 12.9032C45.4819 13.7602 45.7827 14.4437 46.3842 14.9539C46.996 15.4538 47.7046 15.8721 48.5101 16.2087L52.0889 17.7085C52.8842 18.035 53.6285 18.4482 54.3218 18.9481C55.0151 19.448 55.5759 20.05 56.0041 20.7539C56.4324 21.4579 56.6465 22.2792 56.6465 23.2178C56.6465 24.3503 56.3865 25.3603 55.8665 26.2479C55.3567 27.1253 54.5716 27.8191 53.5112 28.3292C52.4508 28.8394 51.1101 29.0944 49.4889 29.0944C48.2042 29.0944 46.9399 28.8853 45.696 28.467C44.4623 28.0385 43.3713 27.4824 42.4231 26.7989Z" fill="white"/>
<path d="M61.7145 28.7271C61.4392 28.7883 61.0926 28.819 60.6745 28.819C60.2361 28.819 59.8792 28.7883 59.604 28.7271V16.8209C59.604 16.2496 59.5122 15.8619 59.3287 15.6578C59.1553 15.4538 58.8291 15.3517 58.3498 15.3517H58.0746C58.0134 15.0763 57.9828 14.811 57.9828 14.556C57.9828 14.4131 57.9879 14.2856 57.9981 14.1734C58.0185 14.0509 58.044 13.9132 58.0746 13.7602C58.411 13.7092 58.7016 13.6785 58.9463 13.6683C59.191 13.6479 59.3898 13.6377 59.5428 13.6377H59.7875C60.3992 13.6377 60.8733 13.8265 61.2098 14.204C61.5463 14.5713 61.7145 15.0865 61.7145 15.7496V28.7271ZM58.6557 9.78122C58.6557 9.33231 58.7271 8.96502 58.8698 8.67936C59.0126 8.58754 59.2114 8.51612 59.4663 8.46511C59.7212 8.40389 59.9608 8.37328 60.1851 8.37328C60.389 8.37328 60.6286 8.40389 60.9039 8.46511C61.1792 8.51612 61.378 8.58754 61.5004 8.67936C61.5616 8.80179 61.6126 8.97012 61.6533 9.18438C61.6941 9.39863 61.7145 9.59758 61.7145 9.78122C61.7145 10.2301 61.6431 10.5974 61.5004 10.8831C61.3984 10.9749 61.2047 11.0514 60.9192 11.1126C60.6337 11.1636 60.389 11.1892 60.1851 11.1892C59.9608 11.1892 59.7212 11.1636 59.4663 11.1126C59.2114 11.0514 59.0126 10.9749 58.8698 10.8831C58.7271 10.5974 58.6557 10.2301 58.6557 9.78122Z" fill="white"/>
<path d="M105.435 27.0743C105.557 27.3804 105.618 27.7681 105.618 28.2374C105.618 28.3088 105.618 28.3854 105.618 28.467C105.618 28.5384 105.608 28.6047 105.588 28.6659C105.302 28.7067 104.946 28.7475 104.517 28.7883C104.089 28.8292 103.722 28.8496 103.416 28.8496C102.682 28.8496 102.08 28.6404 101.611 28.2221C101.142 27.8038 100.908 27.1968 100.908 26.401V6.41442L101.091 6.23077H101.856C102.346 6.23077 102.657 6.3583 102.789 6.61337C102.922 6.85822 102.988 7.22041 102.988 7.69992V25.7888C102.988 26.2173 103.085 26.5387 103.278 26.753C103.472 26.9672 103.753 27.0743 104.12 27.0743H105.435Z" fill="white"/>
<path d="M137.497 18.2747C137.497 19.4684 137.415 20.6162 137.252 21.7181C137.099 22.8097 136.783 23.83 136.304 24.7788C135.835 25.7276 135.131 26.5795 134.193 27.3345C133.734 27.7018 133.184 28.0028 132.541 28.2374C131.899 28.4619 131.241 28.6251 130.568 28.7271C129.906 28.8292 129.299 28.8802 128.748 28.8802C127.902 28.8802 127.107 28.8751 126.363 28.8649C125.618 28.8547 124.864 28.8394 124.099 28.819C123.345 28.7985 122.524 28.7781 121.637 28.7577L121.438 28.5588V7.99069L121.637 7.79175C122.514 7.76114 123.329 7.73563 124.084 7.71523C124.848 7.69482 125.603 7.68462 126.347 7.68462C127.102 7.68462 127.902 7.68462 128.748 7.68462C129.299 7.68462 129.911 7.73563 130.584 7.83766C131.257 7.93968 131.914 8.10292 132.557 8.32737C133.199 8.55183 133.744 8.8477 134.193 9.21498C135.121 9.96996 135.819 10.827 136.288 11.786C136.768 12.7348 137.089 13.7602 137.252 14.862C137.415 15.9537 137.497 17.0913 137.497 18.2747ZM133.474 18.2747C133.474 17.4075 133.418 16.5352 133.306 15.6578C133.204 14.7804 132.99 13.9744 132.664 13.2398C132.337 12.4951 131.858 11.8982 131.226 11.4493C130.604 11.0004 129.773 10.776 128.733 10.776C128.152 10.776 127.596 10.7709 127.066 10.7607C126.546 10.7505 125.965 10.7453 125.323 10.7453V25.7888C125.965 25.7786 126.546 25.7786 127.066 25.7888C127.596 25.7888 128.152 25.7888 128.733 25.7888C129.773 25.7888 130.604 25.5644 131.226 25.1155C131.858 24.6564 132.337 24.0595 132.664 23.3249C132.99 22.5802 133.204 21.7691 133.306 20.8917C133.418 20.0041 133.474 19.1317 133.474 18.2747Z" fill="white"/>
<path d="M152.095 21.1365C152.095 22.7281 151.84 24.1258 151.331 25.3297C150.821 26.5336 150.061 27.4722 149.052 28.1456C148.042 28.8088 146.793 29.1403 145.305 29.1403C143.816 29.1403 142.567 28.8036 141.558 28.1303C140.559 27.4569 139.804 26.5183 139.294 25.3144C138.785 24.1105 138.53 22.7179 138.53 21.1365C138.53 19.5449 138.785 18.1523 139.294 16.9586C139.814 15.7547 140.574 14.8161 141.573 14.1428C142.583 13.4694 143.826 13.1327 145.305 13.1327C146.804 13.1327 148.058 13.4745 149.067 14.1581C150.077 14.8314 150.831 15.77 151.331 16.9739C151.84 18.1676 152.095 19.5551 152.095 21.1365ZM142.445 21.1365C142.445 22.0445 142.521 22.8913 142.674 23.6769C142.827 24.4523 143.113 25.0798 143.531 25.5593C143.949 26.0286 144.545 26.2632 145.32 26.2632C146.105 26.2632 146.702 26.0286 147.11 25.5593C147.517 25.0798 147.798 24.4523 147.951 23.6769C148.114 22.8913 148.195 22.0445 148.195 21.1365C148.195 20.2387 148.114 19.397 147.951 18.6114C147.798 17.8258 147.517 17.1933 147.11 16.7138C146.702 16.2343 146.105 15.9945 145.32 15.9945C144.545 15.9945 143.949 16.2343 143.531 16.7138C143.113 17.1933 142.827 17.8258 142.674 18.6114C142.521 19.397 142.445 20.2387 142.445 21.1365Z" fill="white"/>
<path d="M162.067 19.7592C162.088 19.045 162.037 18.4074 161.914 17.8462C161.802 17.2749 161.573 16.826 161.226 16.4995C160.89 16.173 160.39 16.0098 159.727 16.0098C158.861 16.0098 158.208 16.4383 157.77 17.2953C157.341 18.1421 157.127 19.448 157.127 21.213C157.127 22.9577 157.398 24.2126 157.938 24.9777C158.488 25.7327 159.268 26.1102 160.278 26.1102C160.93 26.1102 161.557 25.9623 162.159 25.6664C162.771 25.3705 163.332 25.0338 163.841 24.6564C164.168 24.8502 164.479 25.1665 164.774 25.6052C165.08 26.0439 165.274 26.4622 165.355 26.8601C164.683 27.5437 163.841 28.0946 162.832 28.5129C161.833 28.9312 160.783 29.1403 159.681 29.1403C158.58 29.1403 157.622 28.9414 156.806 28.5435C156.001 28.1456 155.333 27.5896 154.803 26.8754C154.272 26.151 153.875 25.3093 153.61 24.3503C153.355 23.3811 153.227 22.3353 153.227 21.213C153.227 19.2848 153.549 17.7289 154.191 16.5454C154.833 15.3619 155.654 14.4998 156.653 13.9591C157.663 13.4082 158.713 13.1327 159.804 13.1327C160.711 13.1327 161.517 13.2653 162.22 13.5306C162.934 13.7959 163.535 14.153 164.025 14.6019C164.514 15.0508 164.881 15.566 165.126 16.1475C165.381 16.7189 165.508 17.3157 165.508 17.9381C165.508 18.5706 165.345 19.0603 165.019 19.4072C164.693 19.7439 164.224 19.9122 163.612 19.9122C163.306 19.9122 163.031 19.902 162.786 19.8816C162.552 19.851 162.312 19.8102 162.067 19.7592Z" fill="white"/>
<path d="M166.4 27.6406C166.421 27.2121 166.543 26.7428 166.767 26.2326C166.992 25.7123 167.257 25.3093 167.563 25.0236C168.215 25.3705 168.903 25.6766 169.627 25.9419C170.361 26.2071 171.095 26.3398 171.83 26.3398C172.564 26.3398 173.135 26.1918 173.543 25.896C173.961 25.6001 174.175 25.2226 174.185 24.7635C174.185 24.386 174.042 24.0442 173.757 23.7381C173.481 23.4321 173.053 23.1719 172.472 22.9577L170.728 22.3149C170.025 22.0598 169.377 21.7385 168.786 21.3508C168.205 20.9529 167.736 20.4734 167.379 19.9122C167.032 19.3409 166.859 18.6573 166.859 17.8615C166.859 16.8923 167.099 16.0557 167.578 15.3517C168.057 14.6376 168.72 14.0917 169.566 13.7143C170.412 13.3266 171.386 13.1327 172.487 13.1327C173.364 13.1327 174.297 13.25 175.286 13.4847C176.275 13.7194 177.086 13.9948 177.718 14.3111C177.738 14.76 177.646 15.2599 177.442 15.8109C177.239 16.3618 176.973 16.7648 176.647 17.0198C176.076 16.7648 175.424 16.525 174.69 16.3006C173.966 16.0761 173.232 15.9639 172.487 15.9639C171.926 15.9639 171.478 16.1016 171.141 16.3771C170.815 16.6424 170.652 16.9892 170.652 17.4177C170.652 17.785 170.785 18.0911 171.05 18.336C171.315 18.5706 171.723 18.79 172.273 18.994L174.154 19.698C175.306 20.1061 176.255 20.6876 176.999 21.4426C177.743 22.1976 178.115 23.1872 178.115 24.4115C178.115 25.8807 177.55 27.0386 176.418 27.8854C175.296 28.722 173.782 29.1403 171.875 29.1403C170.795 29.1403 169.78 28.9924 168.832 28.6965C167.894 28.4007 167.083 28.0487 166.4 27.6406Z" fill="white"/>
<path fill-rule="evenodd" clip-rule="evenodd" d="M108.876 21.8711C108.907 22.8057 109.027 23.6474 109.235 24.3962C109.49 25.2736 109.908 25.9623 110.49 26.4622C111.071 26.9519 111.866 27.1968 112.875 27.1968C113.701 27.1968 114.481 27.0743 115.215 26.8295C115.96 26.5744 116.668 26.2582 117.341 25.8807C117.545 26.0643 117.718 26.3041 117.861 26.5999C118.014 26.8856 118.106 27.1458 118.136 27.3804C117.433 27.8701 116.592 28.2782 115.613 28.6047C114.644 28.9312 113.64 29.0944 112.6 29.0944C111.468 29.0944 110.515 28.8853 109.74 28.467C108.975 28.0385 108.364 27.4569 107.905 26.7224C107.446 25.9878 107.115 25.1461 106.911 24.1973C106.707 23.2484 106.605 22.2486 106.605 21.1977C106.605 19.6878 106.844 18.3462 107.324 17.1729C107.803 15.9894 108.496 15.061 109.404 14.3876C110.311 13.7041 111.407 13.3623 112.692 13.3623C113.997 13.3623 115.083 13.6581 115.949 14.2499C116.826 14.8416 117.479 15.6323 117.907 16.622C118.346 17.6116 118.565 18.7084 118.565 19.9122C118.565 20.2795 118.555 20.606 118.534 20.8917C118.524 21.1773 118.493 21.5038 118.442 21.8711H108.876ZM116.026 17.4024C116.271 18.1268 116.393 18.9226 116.393 19.7898V20.2183H108.878C108.935 18.7393 109.258 17.5304 109.847 16.5913C110.51 15.5405 111.458 15.0151 112.692 15.0151C113.579 15.0151 114.293 15.2344 114.833 15.6731C115.384 16.1016 115.781 16.6781 116.026 17.4024Z" fill="white"/>
<path d="M67.2328 14.0203C67.1002 13.7653 66.7893 13.6377 66.2999 13.6377H65.5046L65.321 13.852V28.7271C65.5963 28.7884 65.9532 28.819 66.3916 28.819C66.8097 28.819 67.1563 28.7884 67.4316 28.7271V17.8287C67.6097 17.5908 67.8034 17.3671 68.0128 17.1576C68.5735 16.5863 69.1649 16.1475 69.7869 15.8415C70.419 15.5354 71.0104 15.3824 71.561 15.3824C72.3461 15.3824 72.8915 15.6578 73.1974 16.2088C73.5135 16.7597 73.6715 17.6575 73.6715 18.9022V28.7271C73.9468 28.7884 74.3037 28.819 74.7421 28.819C75.1602 28.819 75.5068 28.7884 75.7821 28.7271V18.1676C75.7821 18.0452 75.7794 17.9241 75.774 17.8046C75.9722 17.5436 76.1839 17.3024 76.4092 17.0811C76.9801 16.5199 77.5766 16.0965 78.1986 15.8109C78.8205 15.5252 79.4017 15.3824 79.9421 15.3824C80.7272 15.3824 81.2726 15.6527 81.5785 16.1935C81.8946 16.7342 82.0526 17.6269 82.0526 18.8716V27.5029C82.0526 27.9722 82.1342 28.3241 82.2973 28.5588C82.4707 28.7935 82.7561 28.9108 83.1538 28.9108C83.3985 28.9108 83.6432 28.8649 83.8879 28.7731C84.1428 28.6914 84.3467 28.5843 84.4997 28.4517C84.3671 28.115 84.2754 27.7273 84.2244 27.2886C84.1836 26.8397 84.1632 26.3704 84.1632 25.8807V18.1676C84.1632 17.3106 84.0256 16.525 83.7503 15.8109C83.4852 15.0967 83.0722 14.5254 82.5115 14.0969C81.9507 13.6684 81.2268 13.4541 80.3397 13.4541C79.6872 13.4541 79.0499 13.5714 78.428 13.8061C77.806 14.0305 77.2044 14.3519 76.6233 14.7702C76.194 15.0717 75.7786 15.412 75.3772 15.7914C75.1117 15.0863 74.6961 14.5215 74.1304 14.0969C73.5696 13.6684 72.8457 13.4541 71.9586 13.4541C71.3061 13.4541 70.6535 13.5867 70.001 13.852C69.3484 14.1071 68.7316 14.4795 68.1504 14.9692C67.8956 15.1877 67.656 15.4256 67.4316 15.6828V15.1069C67.4316 14.6274 67.3653 14.2652 67.2328 14.0203Z" fill="white"/>
<path fill-rule="evenodd" clip-rule="evenodd" d="M88.9208 14.0203C88.7883 13.7653 88.4773 13.6377 87.9879 13.6377H87.2232L87.0397 13.8214V35.1241L87.2232 35.3077H87.9879C88.4773 35.3077 88.7883 35.1802 88.9208 34.9251C89.0534 34.6701 89.1196 34.3079 89.1196 33.8386V27.6543C89.5552 27.9358 90.0038 28.1863 90.4655 28.4058C91.2812 28.7833 92.1478 28.972 93.0655 28.972C93.9423 28.972 94.8192 28.7016 95.696 28.1609C96.5729 27.61 97.3019 26.753 97.8831 25.5899C98.4642 24.4268 98.7548 22.9118 98.7548 21.0447C98.7548 19.5245 98.5611 18.188 98.1737 17.0352C97.7862 15.8823 97.2101 14.9845 96.4454 14.3417C95.6909 13.6888 94.758 13.3623 93.6467 13.3623C92.7188 13.3623 91.8777 13.551 91.1232 13.9285C90.3788 14.306 89.7416 14.7855 89.2114 15.3671C89.1803 15.4012 89.1498 15.4354 89.1196 15.4696V15.1069C89.1196 14.6274 89.0534 14.2652 88.9208 14.0203ZM89.1196 17.723V25.6535C89.4819 25.8969 89.8745 26.1461 90.2973 26.401C91.0926 26.8703 91.9541 27.105 92.882 27.105C93.5039 27.105 94.1004 26.9009 94.6713 26.4928C95.2423 26.0745 95.7062 25.4216 96.0631 24.5339C96.4301 23.6463 96.6137 22.4833 96.6137 21.0447C96.6137 19.6572 96.4556 18.54 96.1396 17.6932C95.8235 16.8362 95.4055 16.2139 94.8855 15.8262C94.3757 15.4283 93.8302 15.2293 93.249 15.2293C92.6169 15.2293 91.9745 15.3926 91.322 15.719C90.6796 16.0455 90.0985 16.5097 89.5785 17.1117C89.4119 17.3045 89.259 17.5082 89.1196 17.723Z" fill="white"/>
<path fill-rule="evenodd" clip-rule="evenodd" d="M4.87577 1.69811C4.87577 0.760271 5.63177 0 6.56433 0H24.1867C26.6114 0 28.577 1.9767 28.577 4.41509V31.5849C28.577 34.0233 26.6114 36 24.1867 36H2.5732C1.64064 36 0.884644 35.2397 0.884644 34.3019C0.884644 33.364 1.64064 32.6038 2.5732 32.6038H24.1867C24.7462 32.6038 25.1998 32.1476 25.1998 31.5849V4.41509C25.1998 3.85239 24.7462 3.39623 24.1867 3.39623H6.56433C5.63177 3.39623 4.87577 2.63596 4.87577 1.69811Z" fill="#FFDB1D"/>
<path fill-rule="evenodd" clip-rule="evenodd" d="M10.3406 9.84906C10.3406 8.91121 11.0965 8.15094 12.0291 8.15094H20.8096C21.7422 8.15094 22.4982 8.91121 22.4982 9.84906C22.4982 10.7869 21.7422 11.5472 20.8096 11.5472H12.0291C11.0965 11.5472 10.3406 10.7869 10.3406 9.84906Z" fill="#FFDB1D"/>
<path fill-rule="evenodd" clip-rule="evenodd" d="M2.91091 18C2.91091 17.0622 3.6669 16.3019 4.59947 16.3019L20.8096 16.3019C21.7422 16.3019 22.4982 17.0622 22.4982 18C22.4982 18.9378 21.7422 19.6981 20.8096 19.6981L4.59947 19.6981C3.6669 19.6981 2.91091 18.9378 2.91091 18Z" fill="#FFDB1D"/>
<path fill-rule="evenodd" clip-rule="evenodd" d="M6.96344 26.1509C6.96344 25.2131 7.71944 24.4528 8.652 24.4528H20.8096C21.7422 24.4528 22.4982 25.2131 22.4982 26.1509C22.4982 27.0888 21.7422 27.8491 20.8096 27.8491H8.652C7.71944 27.8491 6.96344 27.0888 6.96344 26.1509Z" fill="#FFDB1D"/>
</svg>
