<svg width="178" height="37" viewBox="0 0 178 37" fill="none" xmlns="http://www.w3.org/2000/svg">
  <path d="M41.7188 26.9152C41.7495 26.577 41.8672 26.244 42.072 25.9161C42.2871 25.578 42.5175 25.3167 42.7633 25.1323C43.6746 25.7573 44.6679 26.2696 45.7432 26.6693C46.8286 27.0586 47.8834 27.2533 48.9074 27.2533C50.3717 27.2533 51.5391 26.951 52.4095 26.3465C53.2902 25.7317 53.7305 24.8863 53.7305 23.8104C53.7305 22.837 53.4028 22.0326 52.7475 21.3973C52.0921 20.7518 51.3036 20.2343 50.382 19.8449L46.6648 18.2772C45.3643 17.7239 44.3505 17.0322 43.6234 16.2022C42.9066 15.3723 42.5482 14.3527 42.5482 13.1436C42.5482 12.1292 42.8145 11.1916 43.3469 10.3309C43.8794 9.47016 44.6372 8.78363 45.6203 8.27129C46.6136 7.74871 47.7912 7.48742 49.1532 7.48742C50.3205 7.48742 51.4214 7.63599 52.4556 7.93315C53.4899 8.2303 54.4064 8.57357 55.2051 8.96294C55.2051 9.28059 55.1232 9.61361 54.9594 9.962C54.7955 10.3104 54.5805 10.5922 54.3142 10.8074C53.5053 10.3872 52.6502 10.0491 51.7491 9.79293C50.8479 9.52651 50.0133 9.39331 49.2453 9.39331C47.9448 9.39331 46.8747 9.7212 46.035 10.377C45.2055 11.0328 44.7908 11.8935 44.7908 12.9592C44.7908 13.8199 45.0929 14.5064 45.6971 15.0188C46.3115 15.5208 47.0232 15.941 47.8322 16.2791L51.4265 17.7854C52.2252 18.1133 52.9728 18.5282 53.6691 19.0303C54.3654 19.5324 54.9286 20.137 55.3587 20.844C55.7888 21.551 56.0039 22.3759 56.0039 23.3186C56.0039 24.456 55.7427 25.4704 55.2205 26.3619C54.7085 27.2431 53.92 27.9399 52.855 28.4522C51.79 28.9645 50.4434 29.2207 48.8152 29.2207C47.525 29.2207 46.2552 29.0106 45.0059 28.5905C43.7668 28.1602 42.6711 27.6017 41.7188 26.9152Z" fill="black"/>
  <path d="M61.0939 28.8518C60.8174 28.9133 60.4692 28.944 60.0494 28.944C59.6091 28.944 59.2507 28.9133 58.9742 28.8518V16.8939C58.9742 16.3201 58.882 15.9307 58.6977 15.7258C58.5236 15.5208 58.1959 15.4184 57.7146 15.4184H57.4381C57.3767 15.1417 57.346 14.8753 57.346 14.6191C57.346 14.4757 57.3511 14.3476 57.3613 14.2349C57.3818 14.1119 57.4074 13.9736 57.4381 13.8199C57.7761 13.7687 58.0679 13.7379 58.3137 13.7277C58.5594 13.7072 58.7591 13.6969 58.9127 13.6969H59.1585C59.7729 13.6969 60.2491 13.8865 60.587 14.2656C60.9249 14.6345 61.0939 15.152 61.0939 15.818V28.8518ZM58.0218 9.82367C58.0218 9.37281 58.0935 9.00393 58.2369 8.71702C58.3802 8.6248 58.5799 8.55308 58.8359 8.50184C59.0919 8.44036 59.3326 8.40962 59.5579 8.40962C59.7627 8.40962 60.0033 8.44036 60.2798 8.50184C60.5563 8.55308 60.756 8.6248 60.8789 8.71702C60.9403 8.83998 60.9915 9.00905 61.0325 9.22423C61.0734 9.43942 61.0939 9.63923 61.0939 9.82367C61.0939 10.2745 61.0222 10.6434 60.8789 10.9303C60.7765 11.0225 60.5819 11.0994 60.2952 11.1609C60.0084 11.2121 59.7627 11.2377 59.5579 11.2377C59.3326 11.2377 59.0919 11.2121 58.8359 11.1609C58.5799 11.0994 58.3802 11.0225 58.2369 10.9303C58.0935 10.6434 58.0218 10.2745 58.0218 9.82367Z" fill="black"/>
  <path d="M65.6991 13.6969C66.1907 13.6969 66.503 13.825 66.6361 14.0812C66.7692 14.3271 66.8358 14.6909 66.8358 15.1725V28.8518C66.5593 28.9133 66.2111 28.944 65.7913 28.944C65.351 28.944 64.9925 28.9133 64.7161 28.8518V13.9121L64.9004 13.6969H65.6991ZM73.1028 18.9842C73.1028 17.7341 72.9441 16.8324 72.6266 16.2791C72.3194 15.7258 71.7716 15.4491 70.9831 15.4491C70.4301 15.4491 69.8362 15.6028 69.2013 15.9102C68.5766 16.2176 67.9827 16.6582 67.4195 17.232C66.8563 17.7956 66.4057 18.4616 66.0678 19.2301V16.8017C66.4876 16.1151 66.9843 15.526 67.5577 15.0341C68.1414 14.5423 68.7609 14.1683 69.4163 13.9121C70.0717 13.6457 70.7271 13.5125 71.3824 13.5125C72.2733 13.5125 73.0004 13.7277 73.5636 14.158C74.1371 14.5884 74.5569 15.1622 74.8232 15.8795C75.0894 16.5967 75.2225 17.3857 75.2225 18.2465V28.8518C74.946 28.9133 74.5979 28.944 74.178 28.944C73.7377 28.944 73.3793 28.9133 73.1028 28.8518V18.9842ZM81.5203 18.9535C81.5203 17.7034 81.3615 16.8068 81.0441 16.2637C80.7369 15.7206 80.189 15.4491 79.4005 15.4491C78.8578 15.4491 78.2741 15.5926 77.6495 15.8795C77.0248 16.1664 76.4258 16.5916 75.8523 17.1552C75.2789 17.7188 74.7924 18.4104 74.3931 19.2301V16.2791C74.9256 15.7258 75.4837 15.2442 76.0673 14.8343C76.651 14.4142 77.2552 14.0914 77.8799 13.866C78.5045 13.6303 79.1445 13.5125 79.7999 13.5125C80.6908 13.5125 81.4179 13.7277 81.9811 14.158C82.5443 14.5884 82.959 15.1622 83.2253 15.8795C83.5018 16.5967 83.64 17.3857 83.64 18.2465V25.993C83.64 26.4848 83.6605 26.9562 83.7014 27.407C83.7526 27.8476 83.8448 28.237 83.9779 28.5751C83.8243 28.7084 83.6195 28.8159 83.3635 28.8979C83.1177 28.9901 82.872 29.0363 82.6262 29.0363C82.2268 29.0363 81.9401 28.9184 81.766 28.6827C81.6022 28.4471 81.5203 28.0936 81.5203 27.6222V18.9535Z" fill="black"/>
  <path d="M87.4813 13.6969C87.9728 13.6969 88.2851 13.825 88.4183 14.0812C88.5514 14.3271 88.6179 14.6909 88.6179 15.1725V33.9854C88.6179 34.4568 88.5514 34.8205 88.4183 35.0767C88.2851 35.3329 87.9728 35.4609 87.4813 35.4609H86.7133L86.5289 35.2765V13.8814L86.7133 13.6969H87.4813ZM98.295 21.136C98.295 23.0112 98.0031 24.5328 97.4194 25.7009C96.8357 26.8691 96.1035 27.7298 95.2229 28.2831C94.3422 28.8262 93.4616 29.0977 92.5809 29.0977C91.6593 29.0977 90.7889 28.9082 89.9697 28.529C89.1504 28.1397 88.3722 27.6529 87.6349 27.0689L87.727 25.1323C88.3107 25.5729 89.002 26.034 89.8007 26.5156C90.5994 26.9869 91.4647 27.2226 92.3966 27.2226C93.0212 27.2226 93.6203 27.0176 94.1937 26.6078C94.7672 26.1877 95.2331 25.5319 95.5915 24.6404C95.9602 23.7489 96.1445 22.5808 96.1445 21.136C96.1445 19.7425 95.9858 18.6205 95.6683 17.77C95.3509 16.9093 94.931 16.2842 94.4088 15.8948C93.8968 15.4952 93.3489 15.2954 92.7652 15.2954C92.1303 15.2954 91.4852 15.4594 90.8298 15.7873C90.1847 16.1151 89.601 16.5814 89.0788 17.1859C88.5565 17.7905 88.1674 18.5026 87.9114 19.3224L87.5427 17.2013C87.7987 16.5967 88.1879 16.0076 88.7101 15.4337C89.2426 14.8497 89.8826 14.3681 90.6301 13.989C91.3879 13.6098 92.2327 13.4203 93.1646 13.4203C94.2808 13.4203 95.2178 13.7482 95.9755 14.4039C96.7436 15.0495 97.3221 15.9512 97.7113 17.1091C98.1004 18.267 98.295 19.6093 98.295 21.136Z" fill="black"/>
  <path d="M105.004 27.1918C105.127 27.4992 105.188 27.8886 105.188 28.36C105.188 28.4317 105.188 28.5085 105.188 28.5905C105.188 28.6622 105.178 28.7288 105.158 28.7903C104.871 28.8313 104.513 28.8723 104.082 28.9133C103.652 28.9543 103.284 28.9748 102.977 28.9748C102.239 28.9748 101.635 28.7647 101.164 28.3446C100.693 27.9245 100.457 27.3148 100.457 26.5156V6.44225L100.642 6.25781H101.41C101.901 6.25781 102.214 6.3859 102.347 6.64206C102.48 6.88798 102.546 7.25174 102.546 7.73334V25.9008C102.546 26.3311 102.644 26.6539 102.838 26.8691C103.033 27.0843 103.314 27.1918 103.683 27.1918H105.004Z" fill="black"/>
  <path d="M107.469 21.966V20.3061H116.01V19.8757C116.01 19.0047 115.887 18.2055 115.641 17.478C115.395 16.7504 114.996 16.1715 114.443 15.7411C113.9 15.3005 113.183 15.0802 112.293 15.0802C111.053 15.0802 110.101 15.6079 109.436 16.6633C108.78 17.7085 108.452 19.0867 108.452 20.7979V21.4742C108.452 22.6116 108.575 23.6209 108.821 24.5021C109.077 25.3833 109.497 26.075 110.081 26.577C110.664 27.0689 111.463 27.3148 112.477 27.3148C113.306 27.3148 114.09 27.1918 114.827 26.9459C115.575 26.6898 116.286 26.3721 116.962 25.993C117.167 26.1774 117.341 26.4182 117.484 26.7154C117.638 27.0023 117.73 27.2636 117.761 27.4992C117.054 27.9911 116.209 28.401 115.226 28.7288C114.254 29.0567 113.245 29.2207 112.2 29.2207C111.064 29.2207 110.106 29.0106 109.328 28.5905C108.56 28.1602 107.946 27.5761 107.485 26.8383C107.024 26.1006 106.691 25.2552 106.486 24.3023C106.282 23.3493 106.179 22.3451 106.179 21.2897C106.179 19.7732 106.42 18.4258 106.901 17.2474C107.382 16.0588 108.079 15.1263 108.99 14.4501C109.901 13.7635 111.002 13.4203 112.293 13.4203C113.603 13.4203 114.694 13.7174 115.564 14.3117C116.445 14.906 117.1 15.7002 117.53 16.6941C117.971 17.688 118.191 18.7895 118.191 19.9987C118.191 20.3675 118.181 20.6954 118.16 20.9823C118.15 21.2692 118.119 21.5971 118.068 21.966H107.469Z" fill="black"/>
  <path d="M137.205 18.3541C137.205 19.5529 137.123 20.7057 136.959 21.8123C136.805 22.9087 136.488 23.9334 136.007 24.8863C135.536 25.8393 134.829 26.6949 133.887 27.4531C133.426 27.822 132.873 28.1243 132.228 28.36C131.583 28.5854 130.922 28.7493 130.247 28.8518C129.581 28.9543 128.972 29.0055 128.419 29.0055C127.569 29.0055 126.77 29.0004 126.023 28.9901C125.275 28.9799 124.517 28.9645 123.749 28.944C122.991 28.9235 122.167 28.903 121.276 28.8825L121.076 28.6827V8.02537L121.276 7.82556C122.157 7.79482 122.976 7.7692 123.734 7.74871C124.502 7.72821 125.26 7.71797 126.007 7.71797C126.765 7.71797 127.569 7.71797 128.419 7.71797C128.972 7.71797 129.586 7.7692 130.262 7.87167C130.938 7.97414 131.598 8.13808 132.243 8.36351C132.889 8.58894 133.436 8.88609 133.887 9.25497C134.819 10.0132 135.52 10.874 135.991 11.8371C136.473 12.7901 136.795 13.8199 136.959 14.9265C137.123 16.0229 137.205 17.1654 137.205 18.3541ZM133.165 18.3541C133.165 17.4831 133.109 16.607 132.996 15.7258C132.894 14.8446 132.679 14.0351 132.351 13.2973C132.023 12.5493 131.542 11.9499 130.907 11.499C130.282 11.0481 129.448 10.8227 128.403 10.8227C127.82 10.8227 127.262 10.8176 126.729 10.8074C126.207 10.7971 125.623 10.792 124.978 10.792V25.9008C125.623 25.8905 126.207 25.8905 126.729 25.9008C127.262 25.9008 127.82 25.9008 128.403 25.9008C129.448 25.9008 130.282 25.6753 130.907 25.2245C131.542 24.7634 132.023 24.1639 132.351 23.4262C132.679 22.6782 132.894 21.8636 132.996 20.9823C133.109 20.0909 133.165 19.2148 133.165 18.3541Z" fill="black"/>
  <path d="M151.867 21.2283C151.867 22.8267 151.611 24.2305 151.099 25.4397C150.587 26.6488 149.824 27.5915 148.81 28.2677C147.797 28.9338 146.542 29.2668 145.047 29.2668C143.552 29.2668 142.298 28.9287 141.284 28.2524C140.28 27.5761 139.522 26.6334 139.01 25.4243C138.498 24.2152 138.242 22.8165 138.242 21.2283C138.242 19.6298 138.498 18.2311 139.01 17.0322C139.533 15.8231 140.296 14.8804 141.299 14.2041C142.313 13.5279 143.562 13.1897 145.047 13.1897C146.552 13.1897 147.812 13.533 148.826 14.2195C149.839 14.8958 150.597 15.8385 151.099 17.0476C151.611 18.2465 151.867 19.64 151.867 21.2283ZM142.175 21.2283C142.175 22.1402 142.251 22.9907 142.405 23.7797C142.559 24.5584 142.845 25.1886 143.265 25.6702C143.685 26.1416 144.284 26.3772 145.062 26.3772C145.851 26.3772 146.45 26.1416 146.86 25.6702C147.269 25.1886 147.551 24.5584 147.704 23.7797C147.868 22.9907 147.95 22.1402 147.95 21.2283C147.95 20.3265 147.868 19.4812 147.704 18.6922C147.551 17.9032 147.269 17.2679 146.86 16.7863C146.45 16.3047 145.851 16.0639 145.062 16.0639C144.284 16.0639 143.685 16.3047 143.265 16.7863C142.845 17.2679 142.559 17.9032 142.405 18.6922C142.251 19.4812 142.175 20.3265 142.175 21.2283Z" fill="black"/>
  <path d="M161.882 19.8449C161.903 19.1277 161.851 18.4873 161.729 17.9237C161.616 17.3499 161.386 16.899 161.037 16.5711C160.699 16.2432 160.198 16.0793 159.532 16.0793C158.662 16.0793 158.006 16.5096 157.566 17.3704C157.136 18.2208 156.921 19.5324 156.921 21.3051C156.921 23.0573 157.192 24.3176 157.735 25.0861C158.288 25.8444 159.071 26.2235 160.085 26.2235C160.74 26.2235 161.37 26.075 161.974 25.7778C162.589 25.4806 163.152 25.1425 163.664 24.7634C163.992 24.9581 164.304 25.2757 164.601 25.7163C164.908 26.1569 165.103 26.577 165.185 26.9767C164.509 27.6632 163.664 28.2165 162.65 28.6366C161.647 29.0567 160.592 29.2668 159.486 29.2668C158.38 29.2668 157.417 29.067 156.598 28.6674C155.789 28.2677 155.119 27.7093 154.586 26.992C154.054 26.2645 153.654 25.4192 153.388 24.456C153.132 23.4825 153.004 22.4322 153.004 21.3051C153.004 19.3685 153.326 17.8059 153.972 16.6172C154.617 15.4286 155.441 14.5628 156.445 14.0197C157.458 13.4664 158.513 13.1897 159.609 13.1897C160.52 13.1897 161.329 13.3229 162.036 13.5893C162.753 13.8557 163.357 14.2144 163.848 14.6652C164.34 15.1161 164.709 15.6336 164.954 16.2176C165.21 16.7914 165.338 17.3909 165.338 18.0159C165.338 18.6512 165.174 19.1431 164.847 19.4914C164.519 19.8296 164.048 19.9987 163.434 19.9987C163.126 19.9987 162.85 19.9884 162.604 19.9679C162.369 19.9372 162.128 19.8962 161.882 19.8449Z" fill="black"/>
  <path d="M166.234 27.7605C166.254 27.3302 166.377 26.8588 166.603 26.3465C166.828 25.8239 167.094 25.4192 167.401 25.1323C168.057 25.4806 168.748 25.788 169.475 26.0545C170.212 26.3209 170.95 26.4541 171.687 26.4541C172.424 26.4541 172.998 26.3055 173.407 26.0083C173.827 25.7112 174.042 25.3321 174.052 24.871C174.052 24.4918 173.909 24.1486 173.622 23.8412C173.346 23.5338 172.916 23.2725 172.332 23.0573L170.581 22.4118C169.874 22.1556 169.224 21.8328 168.63 21.4434C168.046 21.0438 167.575 20.5622 167.217 19.9987C166.869 19.4248 166.695 18.7383 166.695 17.9391C166.695 16.9656 166.935 16.1254 167.417 15.4184C167.898 14.7011 168.564 14.1529 169.414 13.7738C170.264 13.3844 171.241 13.1897 172.347 13.1897C173.228 13.1897 174.165 13.3075 175.158 13.5432C176.152 13.7789 176.966 14.0556 177.601 14.3732C177.621 14.8241 177.529 15.3261 177.324 15.8795C177.119 16.4328 176.853 16.8375 176.525 17.0937C175.952 16.8375 175.297 16.5967 174.559 16.3713C173.832 16.1459 173.095 16.0332 172.347 16.0332C171.784 16.0332 171.334 16.1715 170.996 16.4482C170.668 16.7146 170.504 17.063 170.504 17.4933C170.504 17.8622 170.637 18.1696 170.904 18.4155C171.17 18.6512 171.579 18.8715 172.132 19.0764L174.022 19.7835C175.179 20.1933 176.131 20.7774 176.879 21.5357C177.626 22.2939 178 23.2878 178 24.5175C178 25.993 177.432 27.156 176.295 28.0065C175.169 28.8467 173.648 29.2668 171.733 29.2668C170.648 29.2668 169.629 29.1182 168.676 28.8211C167.734 28.5239 166.92 28.1704 166.234 27.7605Z" fill="black"/>
  <path fill-rule="evenodd" clip-rule="evenodd" d="M4.00845 1.70548C4.00845 0.763571 4.76773 0 5.70434 0H23.4032C25.8384 0 27.8125 1.98528 27.8125 4.43426V31.722C27.8125 34.171 25.8384 36.1562 23.4032 36.1562H1.69588C0.759273 36.1562 0 35.3927 0 34.4508C0 33.5089 0.759273 32.7453 1.69588 32.7453H23.4032C23.9652 32.7453 24.4207 32.2871 24.4207 31.722V4.43426C24.4207 3.86911 23.9652 3.41097 23.4032 3.41097H5.70434C4.76773 3.41097 4.00845 2.6474 4.00845 1.70548Z" fill="#FFDB1D"/>
  <path fill-rule="evenodd" clip-rule="evenodd" d="M9.49695 9.8918C9.49695 8.94989 10.2562 8.18632 11.1928 8.18632H20.0114C20.948 8.18632 21.7073 8.94989 21.7073 9.8918C21.7073 10.8337 20.948 11.5973 20.0114 11.5973H11.1928C10.2562 11.5973 9.49695 10.8337 9.49695 9.8918Z" fill="#FFDB1D"/>
  <path fill-rule="evenodd" clip-rule="evenodd" d="M2.03506 18.0781C2.03506 17.1362 2.79433 16.3726 3.73095 16.3726L20.0114 16.3726C20.948 16.3726 21.7073 17.1362 21.7073 18.0781C21.7073 19.02 20.948 19.7836 20.0114 19.7836L3.73095 19.7836C2.79433 19.7836 2.03506 19.02 2.03506 18.0781Z" fill="#FFDB1D"/>
  <path fill-rule="evenodd" clip-rule="evenodd" d="M6.10518 26.2644C6.10518 25.3225 6.86446 24.559 7.80107 24.559H20.0114C20.948 24.559 21.7073 25.3225 21.7073 26.2644C21.7073 27.2064 20.948 27.9699 20.0114 27.9699H7.80107C6.86446 27.9699 6.10518 27.2064 6.10518 26.2644Z" fill="#FFDB1D"/>
</svg>